%TF.GenerationSoftware,KiCad,Pcbnew,10.0.0*%
%TF.CreationDate,2026-05-24T23:24:21+05:30*%
%TF.ProjectId,titan c,74697461-6e20-4632-9e6b-696361645f70,rev?*%
%TF.SameCoordinates,Original*%
%TF.FileFunction,Copper,L1,Top*%
%TF.FilePolarity,Positive*%
%FSLAX46Y46*%
G04 Gerber Fmt 4.6, Leading zero omitted, Abs format (unit mm)*
G04 Created by KiCad (PCBNEW 10.0.0) date 2026-05-24 23:24:21*
%MOMM*%
%LPD*%
G01*
G04 APERTURE LIST*
G04 Aperture macros list*
%AMRoundRect*
0 Rectangle with rounded corners*
0 $1 Rounding radius*
0 $2 $3 $4 $5 $6 $7 $8 $9 X,Y pos of 4 corners*
0 Add a 4 corners polygon primitive as box body*
4,1,4,$2,$3,$4,$5,$6,$7,$8,$9,$2,$3,0*
0 Add four circle primitives for the rounded corners*
1,1,$1+$1,$2,$3*
1,1,$1+$1,$4,$5*
1,1,$1+$1,$6,$7*
1,1,$1+$1,$8,$9*
0 Add four rect primitives between the rounded corners*
20,1,$1+$1,$2,$3,$4,$5,0*
20,1,$1+$1,$4,$5,$6,$7,0*
20,1,$1+$1,$6,$7,$8,$9,0*
20,1,$1+$1,$8,$9,$2,$3,0*%
G04 Aperture macros list end*
%TA.AperFunction,ComponentPad*%
%ADD10C,1.400000*%
%TD*%
%TA.AperFunction,ComponentPad*%
%ADD11C,1.815000*%
%TD*%
%TA.AperFunction,ComponentPad*%
%ADD12R,1.815000X1.815000*%
%TD*%
%TA.AperFunction,ComponentPad*%
%ADD13C,2.200000*%
%TD*%
%TA.AperFunction,SMDPad,CuDef*%
%ADD14RoundRect,0.152400X0.609600X-1.063600X0.609600X1.063600X-0.609600X1.063600X-0.609600X-1.063600X0*%
%TD*%
%TA.AperFunction,ComponentPad*%
%ADD15C,1.524000*%
%TD*%
%TA.AperFunction,SMDPad,CuDef*%
%ADD16RoundRect,0.152400X-0.609600X1.063600X-0.609600X-1.063600X0.609600X-1.063600X0.609600X1.063600X0*%
%TD*%
%TA.AperFunction,ViaPad*%
%ADD17C,0.600000*%
%TD*%
%TA.AperFunction,Conductor*%
%ADD18C,0.200000*%
%TD*%
G04 APERTURE END LIST*
D10*
%TO.P,R2,1*%
%TO.N,Net-(D2-PadA)*%
X184420000Y-56000000D03*
%TO.P,R2,2*%
%TO.N,/LED2*%
X189500000Y-56000000D03*
%TD*%
%TO.P,R1,1*%
%TO.N,Net-(D1-PadA)*%
X184420000Y-52850000D03*
%TO.P,R1,2*%
%TO.N,/LED1*%
X189500000Y-52850000D03*
%TD*%
D11*
%TO.P,D2,A*%
%TO.N,Net-(D2-PadA)*%
X176500000Y-59534894D03*
D12*
%TO.P,D2,C*%
%TO.N,GND*%
X173960000Y-59534894D03*
%TD*%
D13*
%TO.P,SW2,1,1_1*%
%TO.N,/Button2*%
X160120000Y-43000000D03*
%TO.P,SW2,2,2_2*%
%TO.N,GND*%
X153770000Y-45540000D03*
%TD*%
D11*
%TO.P,D1,A*%
%TO.N,Net-(D1-PadA)*%
X176500000Y-52069788D03*
D12*
%TO.P,D1,C*%
%TO.N,GND*%
X173960000Y-52069788D03*
%TD*%
D14*
%TO.P,U1,1,P26_A0_D0_1*%
%TO.N,/Button1*%
X192540000Y-27665000D03*
D15*
X192540000Y-28500000D03*
D14*
%TO.P,U1,2,P27_A1_D1_2*%
%TO.N,/Button2*%
X190000000Y-27665000D03*
D15*
X190000000Y-28500000D03*
D14*
%TO.P,U1,3,P28_A2_D2_3*%
%TO.N,/Button3*%
X187460000Y-27665000D03*
D15*
X187460000Y-28500000D03*
D14*
%TO.P,U1,4,P29_A3_D3_4*%
%TO.N,/LED1*%
X184920000Y-27665000D03*
D15*
X184920000Y-28500000D03*
D14*
%TO.P,U1,5,P6_SDA_D4_5*%
%TO.N,/LED2*%
X182380000Y-27665000D03*
D15*
X182380000Y-28500000D03*
D14*
%TO.P,U1,6,P7_SCL_D5_6*%
%TO.N,/LED3*%
X179840000Y-27665000D03*
D15*
X179840000Y-28500000D03*
D14*
%TO.P,U1,7,P0_D6_TX_7*%
%TO.N,unconnected-(U1-P0_D6_TX-Pad7)*%
X177300000Y-27665000D03*
D15*
%TO.N,unconnected-(U1-P0_D6_TX-Pad7)_1*%
X177300000Y-28500000D03*
%TO.P,U1,8,P1_D7_RX_8*%
%TO.N,unconnected-(U1-P1_D7_RX-Pad8)_1*%
X177300000Y-43740000D03*
D16*
%TO.N,unconnected-(U1-P1_D7_RX-Pad8)*%
X177300000Y-44575000D03*
D15*
%TO.P,U1,9,P2_D8_SCK_9*%
%TO.N,unconnected-(U1-P2_D8_SCK-Pad9)*%
X179840000Y-43740000D03*
D16*
%TO.N,unconnected-(U1-P2_D8_SCK-Pad9)_1*%
X179840000Y-44575000D03*
D15*
%TO.P,U1,10,P4_D9_MISO_10*%
%TO.N,unconnected-(U1-P4_D9_MISO-Pad10)_1*%
X182380000Y-43740000D03*
D16*
%TO.N,unconnected-(U1-P4_D9_MISO-Pad10)*%
X182380000Y-44575000D03*
D15*
%TO.P,U1,11,P3_D10_MOSI_11*%
%TO.N,unconnected-(U1-P3_D10_MOSI-Pad11)_1*%
X184920000Y-43740000D03*
D16*
%TO.N,unconnected-(U1-P3_D10_MOSI-Pad11)*%
X184920000Y-44575000D03*
D15*
%TO.P,U1,12,3V3_12*%
%TO.N,unconnected-(U1-3V3-Pad12)*%
X187460000Y-43740000D03*
D16*
%TO.N,unconnected-(U1-3V3-Pad12)_1*%
X187460000Y-44575000D03*
D15*
%TO.P,U1,13,GND_13*%
%TO.N,GND*%
X190000000Y-43740000D03*
D16*
X190000000Y-44575000D03*
D15*
%TO.P,U1,14,VBUS_14*%
%TO.N,unconnected-(U1-VBUS-Pad14)_1*%
X192540000Y-43740000D03*
D16*
%TO.N,unconnected-(U1-VBUS-Pad14)*%
X192540000Y-44575000D03*
%TD*%
D10*
%TO.P,R3,1*%
%TO.N,Net-(D3-PadA)*%
X184420000Y-59150000D03*
%TO.P,R3,2*%
%TO.N,/LED3*%
X189500000Y-59150000D03*
%TD*%
D11*
%TO.P,D3,A*%
%TO.N,Net-(D3-PadA)*%
X176500000Y-67000000D03*
D12*
%TO.P,D3,C*%
%TO.N,GND*%
X173960000Y-67000000D03*
%TD*%
D13*
%TO.P,SW3,1,1_1*%
%TO.N,/Button3*%
X160000000Y-63500000D03*
%TO.P,SW3,2,2_2*%
%TO.N,GND*%
X153650000Y-66040000D03*
%TD*%
%TO.P,SW1,1,1_1*%
%TO.N,/Button1*%
X160000000Y-22500000D03*
%TO.P,SW1,2,2_2*%
%TO.N,GND*%
X153650000Y-25040000D03*
%TD*%
D17*
%TO.N,/LED2*%
X183171599Y-28962000D03*
%TO.N,/LED1*%
X185697881Y-28962000D03*
%TO.N,/Button1*%
X161215209Y-30203422D03*
%TO.N,/LED3*%
X180667457Y-28962000D03*
%TD*%
%TO.N,Net-(D2-PadA)*%
D18*
X176500000Y-59534894D02*
X180885106Y-59534894D01*
X180885106Y-59534894D02*
X184420000Y-56000000D01*
%TO.N,/LED2*%
X182709599Y-28500000D02*
X183171599Y-28962000D01*
X182380000Y-28500000D02*
X182709599Y-28500000D01*
%TO.N,Net-(D1-PadA)*%
X183639788Y-52069788D02*
X184420000Y-52850000D01*
X176500000Y-52069788D02*
X183639788Y-52069788D01*
%TO.N,/LED1*%
X184920000Y-28500000D02*
X185235881Y-28500000D01*
X185235881Y-28500000D02*
X185697881Y-28962000D01*
%TO.N,GND*%
X153700000Y-25090000D02*
X153700000Y-66300000D01*
X188484000Y-46091000D02*
X190000000Y-44575000D01*
X160579899Y-64900000D02*
X174030000Y-51449899D01*
X159420101Y-64900000D02*
X160579899Y-64900000D01*
X153650000Y-25040000D02*
X153700000Y-25090000D01*
X173960000Y-67000000D02*
X173960000Y-52069788D01*
X190000000Y-44575000D02*
X190000000Y-43740000D01*
X153770000Y-59249899D02*
X159420101Y-64900000D01*
X178808788Y-46091000D02*
X188484000Y-46091000D01*
X153770000Y-45540000D02*
X153770000Y-59249899D01*
X153700000Y-66300000D02*
X153500000Y-66500000D01*
X174030000Y-50869788D02*
X178808788Y-46091000D01*
X153500000Y-66500000D02*
X153500000Y-65420000D01*
X174030000Y-51449899D02*
X174030000Y-50869788D01*
%TO.N,/Button2*%
X155110000Y-25410101D02*
X159420101Y-21100000D01*
X155110000Y-37990000D02*
X155110000Y-25410101D01*
X190000000Y-27422370D02*
X190000000Y-28500000D01*
X159420101Y-21100000D02*
X183435000Y-21100000D01*
X160120000Y-43000000D02*
X155110000Y-37990000D01*
X183435000Y-21100000D02*
X190000000Y-27665000D01*
%TO.N,/Button1*%
X189075000Y-31965000D02*
X192540000Y-28500000D01*
X187313422Y-30203422D02*
X189075000Y-31965000D01*
X160000000Y-22500000D02*
X160000000Y-28988213D01*
X161215209Y-30203422D02*
X187313422Y-30203422D01*
X160000000Y-28988213D02*
X161215209Y-30203422D01*
%TO.N,/Button3*%
X193602000Y-26409786D02*
X193341214Y-26149000D01*
X190614473Y-29803422D02*
X188763422Y-29803422D01*
X193341214Y-26149000D02*
X191738786Y-26149000D01*
X191478000Y-28939895D02*
X190614473Y-29803422D01*
X159850000Y-56650000D02*
X184135000Y-32365000D01*
X191478000Y-26409786D02*
X191478000Y-28939895D01*
X184135000Y-32365000D02*
X190176895Y-32365000D01*
X193602000Y-28939895D02*
X193602000Y-26409786D01*
X188763422Y-29803422D02*
X187460000Y-28500000D01*
X159850000Y-63960000D02*
X159850000Y-56650000D01*
X190176895Y-32365000D02*
X193602000Y-28939895D01*
X191738786Y-26149000D02*
X191478000Y-26409786D01*
%TO.N,/LED3*%
X179840000Y-28500000D02*
X180205457Y-28500000D01*
X180205457Y-28500000D02*
X180667457Y-28962000D01*
%TO.N,Net-(D3-PadA)*%
X176500000Y-67000000D02*
X184350000Y-59150000D01*
X184350000Y-59150000D02*
X184420000Y-59150000D01*
%TD*%
M02*
