%TF.GenerationSoftware,KiCad,Pcbnew,10.0.0*%
%TF.CreationDate,2026-05-24T23:24:21+05:30*%
%TF.ProjectId,titan c,74697461-6e20-4632-9e6b-696361645f70,rev?*%
%TF.SameCoordinates,Original*%
%TF.FileFunction,Legend,Top*%
%TF.FilePolarity,Positive*%
%FSLAX46Y46*%
G04 Gerber Fmt 4.6, Leading zero omitted, Abs format (unit mm)*
G04 Created by KiCad (PCBNEW 10.0.0) date 2026-05-24 23:24:21*
%MOMM*%
%LPD*%
G01*
G04 APERTURE LIST*
%ADD10C,0.150000*%
%ADD11C,0.101600*%
%ADD12C,0.120000*%
%ADD13C,0.127000*%
%ADD14C,0.200000*%
%ADD15C,0.100000*%
%ADD16C,0.504000*%
G04 APERTURE END LIST*
D10*
X186793333Y-54534819D02*
X186460000Y-54058628D01*
X186221905Y-54534819D02*
X186221905Y-53534819D01*
X186221905Y-53534819D02*
X186602857Y-53534819D01*
X186602857Y-53534819D02*
X186698095Y-53582438D01*
X186698095Y-53582438D02*
X186745714Y-53630057D01*
X186745714Y-53630057D02*
X186793333Y-53725295D01*
X186793333Y-53725295D02*
X186793333Y-53868152D01*
X186793333Y-53868152D02*
X186745714Y-53963390D01*
X186745714Y-53963390D02*
X186698095Y-54011009D01*
X186698095Y-54011009D02*
X186602857Y-54058628D01*
X186602857Y-54058628D02*
X186221905Y-54058628D01*
X187174286Y-53630057D02*
X187221905Y-53582438D01*
X187221905Y-53582438D02*
X187317143Y-53534819D01*
X187317143Y-53534819D02*
X187555238Y-53534819D01*
X187555238Y-53534819D02*
X187650476Y-53582438D01*
X187650476Y-53582438D02*
X187698095Y-53630057D01*
X187698095Y-53630057D02*
X187745714Y-53725295D01*
X187745714Y-53725295D02*
X187745714Y-53820533D01*
X187745714Y-53820533D02*
X187698095Y-53963390D01*
X187698095Y-53963390D02*
X187126667Y-54534819D01*
X187126667Y-54534819D02*
X187745714Y-54534819D01*
X186793333Y-51384819D02*
X186460000Y-50908628D01*
X186221905Y-51384819D02*
X186221905Y-50384819D01*
X186221905Y-50384819D02*
X186602857Y-50384819D01*
X186602857Y-50384819D02*
X186698095Y-50432438D01*
X186698095Y-50432438D02*
X186745714Y-50480057D01*
X186745714Y-50480057D02*
X186793333Y-50575295D01*
X186793333Y-50575295D02*
X186793333Y-50718152D01*
X186793333Y-50718152D02*
X186745714Y-50813390D01*
X186745714Y-50813390D02*
X186698095Y-50861009D01*
X186698095Y-50861009D02*
X186602857Y-50908628D01*
X186602857Y-50908628D02*
X186221905Y-50908628D01*
X187745714Y-51384819D02*
X187174286Y-51384819D01*
X187460000Y-51384819D02*
X187460000Y-50384819D01*
X187460000Y-50384819D02*
X187364762Y-50527676D01*
X187364762Y-50527676D02*
X187269524Y-50622914D01*
X187269524Y-50622914D02*
X187174286Y-50670533D01*
X174679524Y-56189189D02*
X174679524Y-55389189D01*
X174679524Y-55389189D02*
X174870000Y-55389189D01*
X174870000Y-55389189D02*
X174984286Y-55427284D01*
X174984286Y-55427284D02*
X175060476Y-55503474D01*
X175060476Y-55503474D02*
X175098571Y-55579665D01*
X175098571Y-55579665D02*
X175136667Y-55732046D01*
X175136667Y-55732046D02*
X175136667Y-55846332D01*
X175136667Y-55846332D02*
X175098571Y-55998713D01*
X175098571Y-55998713D02*
X175060476Y-56074903D01*
X175060476Y-56074903D02*
X174984286Y-56151094D01*
X174984286Y-56151094D02*
X174870000Y-56189189D01*
X174870000Y-56189189D02*
X174679524Y-56189189D01*
X175441428Y-55465379D02*
X175479524Y-55427284D01*
X175479524Y-55427284D02*
X175555714Y-55389189D01*
X175555714Y-55389189D02*
X175746190Y-55389189D01*
X175746190Y-55389189D02*
X175822381Y-55427284D01*
X175822381Y-55427284D02*
X175860476Y-55465379D01*
X175860476Y-55465379D02*
X175898571Y-55541570D01*
X175898571Y-55541570D02*
X175898571Y-55617760D01*
X175898571Y-55617760D02*
X175860476Y-55732046D01*
X175860476Y-55732046D02*
X175403333Y-56189189D01*
X175403333Y-56189189D02*
X175898571Y-56189189D01*
X156246667Y-40613200D02*
X156389524Y-40660819D01*
X156389524Y-40660819D02*
X156627619Y-40660819D01*
X156627619Y-40660819D02*
X156722857Y-40613200D01*
X156722857Y-40613200D02*
X156770476Y-40565580D01*
X156770476Y-40565580D02*
X156818095Y-40470342D01*
X156818095Y-40470342D02*
X156818095Y-40375104D01*
X156818095Y-40375104D02*
X156770476Y-40279866D01*
X156770476Y-40279866D02*
X156722857Y-40232247D01*
X156722857Y-40232247D02*
X156627619Y-40184628D01*
X156627619Y-40184628D02*
X156437143Y-40137009D01*
X156437143Y-40137009D02*
X156341905Y-40089390D01*
X156341905Y-40089390D02*
X156294286Y-40041771D01*
X156294286Y-40041771D02*
X156246667Y-39946533D01*
X156246667Y-39946533D02*
X156246667Y-39851295D01*
X156246667Y-39851295D02*
X156294286Y-39756057D01*
X156294286Y-39756057D02*
X156341905Y-39708438D01*
X156341905Y-39708438D02*
X156437143Y-39660819D01*
X156437143Y-39660819D02*
X156675238Y-39660819D01*
X156675238Y-39660819D02*
X156818095Y-39708438D01*
X157151429Y-39660819D02*
X157389524Y-40660819D01*
X157389524Y-40660819D02*
X157580000Y-39946533D01*
X157580000Y-39946533D02*
X157770476Y-40660819D01*
X157770476Y-40660819D02*
X158008572Y-39660819D01*
X158341905Y-39756057D02*
X158389524Y-39708438D01*
X158389524Y-39708438D02*
X158484762Y-39660819D01*
X158484762Y-39660819D02*
X158722857Y-39660819D01*
X158722857Y-39660819D02*
X158818095Y-39708438D01*
X158818095Y-39708438D02*
X158865714Y-39756057D01*
X158865714Y-39756057D02*
X158913333Y-39851295D01*
X158913333Y-39851295D02*
X158913333Y-39946533D01*
X158913333Y-39946533D02*
X158865714Y-40089390D01*
X158865714Y-40089390D02*
X158294286Y-40660819D01*
X158294286Y-40660819D02*
X158913333Y-40660819D01*
X174679524Y-48724083D02*
X174679524Y-47924083D01*
X174679524Y-47924083D02*
X174870000Y-47924083D01*
X174870000Y-47924083D02*
X174984286Y-47962178D01*
X174984286Y-47962178D02*
X175060476Y-48038368D01*
X175060476Y-48038368D02*
X175098571Y-48114559D01*
X175098571Y-48114559D02*
X175136667Y-48266940D01*
X175136667Y-48266940D02*
X175136667Y-48381226D01*
X175136667Y-48381226D02*
X175098571Y-48533607D01*
X175098571Y-48533607D02*
X175060476Y-48609797D01*
X175060476Y-48609797D02*
X174984286Y-48685988D01*
X174984286Y-48685988D02*
X174870000Y-48724083D01*
X174870000Y-48724083D02*
X174679524Y-48724083D01*
X175898571Y-48724083D02*
X175441428Y-48724083D01*
X175670000Y-48724083D02*
X175670000Y-47924083D01*
X175670000Y-47924083D02*
X175593809Y-48038368D01*
X175593809Y-48038368D02*
X175517619Y-48114559D01*
X175517619Y-48114559D02*
X175441428Y-48152654D01*
D11*
X184311190Y-25523479D02*
X184311190Y-26037526D01*
X184311190Y-26037526D02*
X184341428Y-26098002D01*
X184341428Y-26098002D02*
X184371666Y-26128241D01*
X184371666Y-26128241D02*
X184432142Y-26158479D01*
X184432142Y-26158479D02*
X184553095Y-26158479D01*
X184553095Y-26158479D02*
X184613571Y-26128241D01*
X184613571Y-26128241D02*
X184643809Y-26098002D01*
X184643809Y-26098002D02*
X184674047Y-26037526D01*
X184674047Y-26037526D02*
X184674047Y-25523479D01*
X185309047Y-26158479D02*
X184946190Y-26158479D01*
X185127618Y-26158479D02*
X185127618Y-25523479D01*
X185127618Y-25523479D02*
X185067142Y-25614193D01*
X185067142Y-25614193D02*
X185006666Y-25674669D01*
X185006666Y-25674669D02*
X184946190Y-25704907D01*
D10*
X186793333Y-57684819D02*
X186460000Y-57208628D01*
X186221905Y-57684819D02*
X186221905Y-56684819D01*
X186221905Y-56684819D02*
X186602857Y-56684819D01*
X186602857Y-56684819D02*
X186698095Y-56732438D01*
X186698095Y-56732438D02*
X186745714Y-56780057D01*
X186745714Y-56780057D02*
X186793333Y-56875295D01*
X186793333Y-56875295D02*
X186793333Y-57018152D01*
X186793333Y-57018152D02*
X186745714Y-57113390D01*
X186745714Y-57113390D02*
X186698095Y-57161009D01*
X186698095Y-57161009D02*
X186602857Y-57208628D01*
X186602857Y-57208628D02*
X186221905Y-57208628D01*
X187126667Y-56684819D02*
X187745714Y-56684819D01*
X187745714Y-56684819D02*
X187412381Y-57065771D01*
X187412381Y-57065771D02*
X187555238Y-57065771D01*
X187555238Y-57065771D02*
X187650476Y-57113390D01*
X187650476Y-57113390D02*
X187698095Y-57161009D01*
X187698095Y-57161009D02*
X187745714Y-57256247D01*
X187745714Y-57256247D02*
X187745714Y-57494342D01*
X187745714Y-57494342D02*
X187698095Y-57589580D01*
X187698095Y-57589580D02*
X187650476Y-57637200D01*
X187650476Y-57637200D02*
X187555238Y-57684819D01*
X187555238Y-57684819D02*
X187269524Y-57684819D01*
X187269524Y-57684819D02*
X187174286Y-57637200D01*
X187174286Y-57637200D02*
X187126667Y-57589580D01*
X174679524Y-63654295D02*
X174679524Y-62854295D01*
X174679524Y-62854295D02*
X174870000Y-62854295D01*
X174870000Y-62854295D02*
X174984286Y-62892390D01*
X174984286Y-62892390D02*
X175060476Y-62968580D01*
X175060476Y-62968580D02*
X175098571Y-63044771D01*
X175098571Y-63044771D02*
X175136667Y-63197152D01*
X175136667Y-63197152D02*
X175136667Y-63311438D01*
X175136667Y-63311438D02*
X175098571Y-63463819D01*
X175098571Y-63463819D02*
X175060476Y-63540009D01*
X175060476Y-63540009D02*
X174984286Y-63616200D01*
X174984286Y-63616200D02*
X174870000Y-63654295D01*
X174870000Y-63654295D02*
X174679524Y-63654295D01*
X175403333Y-62854295D02*
X175898571Y-62854295D01*
X175898571Y-62854295D02*
X175631905Y-63159057D01*
X175631905Y-63159057D02*
X175746190Y-63159057D01*
X175746190Y-63159057D02*
X175822381Y-63197152D01*
X175822381Y-63197152D02*
X175860476Y-63235247D01*
X175860476Y-63235247D02*
X175898571Y-63311438D01*
X175898571Y-63311438D02*
X175898571Y-63501914D01*
X175898571Y-63501914D02*
X175860476Y-63578104D01*
X175860476Y-63578104D02*
X175822381Y-63616200D01*
X175822381Y-63616200D02*
X175746190Y-63654295D01*
X175746190Y-63654295D02*
X175517619Y-63654295D01*
X175517619Y-63654295D02*
X175441428Y-63616200D01*
X175441428Y-63616200D02*
X175403333Y-63578104D01*
X156126667Y-61113200D02*
X156269524Y-61160819D01*
X156269524Y-61160819D02*
X156507619Y-61160819D01*
X156507619Y-61160819D02*
X156602857Y-61113200D01*
X156602857Y-61113200D02*
X156650476Y-61065580D01*
X156650476Y-61065580D02*
X156698095Y-60970342D01*
X156698095Y-60970342D02*
X156698095Y-60875104D01*
X156698095Y-60875104D02*
X156650476Y-60779866D01*
X156650476Y-60779866D02*
X156602857Y-60732247D01*
X156602857Y-60732247D02*
X156507619Y-60684628D01*
X156507619Y-60684628D02*
X156317143Y-60637009D01*
X156317143Y-60637009D02*
X156221905Y-60589390D01*
X156221905Y-60589390D02*
X156174286Y-60541771D01*
X156174286Y-60541771D02*
X156126667Y-60446533D01*
X156126667Y-60446533D02*
X156126667Y-60351295D01*
X156126667Y-60351295D02*
X156174286Y-60256057D01*
X156174286Y-60256057D02*
X156221905Y-60208438D01*
X156221905Y-60208438D02*
X156317143Y-60160819D01*
X156317143Y-60160819D02*
X156555238Y-60160819D01*
X156555238Y-60160819D02*
X156698095Y-60208438D01*
X157031429Y-60160819D02*
X157269524Y-61160819D01*
X157269524Y-61160819D02*
X157460000Y-60446533D01*
X157460000Y-60446533D02*
X157650476Y-61160819D01*
X157650476Y-61160819D02*
X157888572Y-60160819D01*
X158174286Y-60160819D02*
X158793333Y-60160819D01*
X158793333Y-60160819D02*
X158460000Y-60541771D01*
X158460000Y-60541771D02*
X158602857Y-60541771D01*
X158602857Y-60541771D02*
X158698095Y-60589390D01*
X158698095Y-60589390D02*
X158745714Y-60637009D01*
X158745714Y-60637009D02*
X158793333Y-60732247D01*
X158793333Y-60732247D02*
X158793333Y-60970342D01*
X158793333Y-60970342D02*
X158745714Y-61065580D01*
X158745714Y-61065580D02*
X158698095Y-61113200D01*
X158698095Y-61113200D02*
X158602857Y-61160819D01*
X158602857Y-61160819D02*
X158317143Y-61160819D01*
X158317143Y-61160819D02*
X158221905Y-61113200D01*
X158221905Y-61113200D02*
X158174286Y-61065580D01*
X156126667Y-20113200D02*
X156269524Y-20160819D01*
X156269524Y-20160819D02*
X156507619Y-20160819D01*
X156507619Y-20160819D02*
X156602857Y-20113200D01*
X156602857Y-20113200D02*
X156650476Y-20065580D01*
X156650476Y-20065580D02*
X156698095Y-19970342D01*
X156698095Y-19970342D02*
X156698095Y-19875104D01*
X156698095Y-19875104D02*
X156650476Y-19779866D01*
X156650476Y-19779866D02*
X156602857Y-19732247D01*
X156602857Y-19732247D02*
X156507619Y-19684628D01*
X156507619Y-19684628D02*
X156317143Y-19637009D01*
X156317143Y-19637009D02*
X156221905Y-19589390D01*
X156221905Y-19589390D02*
X156174286Y-19541771D01*
X156174286Y-19541771D02*
X156126667Y-19446533D01*
X156126667Y-19446533D02*
X156126667Y-19351295D01*
X156126667Y-19351295D02*
X156174286Y-19256057D01*
X156174286Y-19256057D02*
X156221905Y-19208438D01*
X156221905Y-19208438D02*
X156317143Y-19160819D01*
X156317143Y-19160819D02*
X156555238Y-19160819D01*
X156555238Y-19160819D02*
X156698095Y-19208438D01*
X157031429Y-19160819D02*
X157269524Y-20160819D01*
X157269524Y-20160819D02*
X157460000Y-19446533D01*
X157460000Y-19446533D02*
X157650476Y-20160819D01*
X157650476Y-20160819D02*
X157888572Y-19160819D01*
X158793333Y-20160819D02*
X158221905Y-20160819D01*
X158507619Y-20160819D02*
X158507619Y-19160819D01*
X158507619Y-19160819D02*
X158412381Y-19303676D01*
X158412381Y-19303676D02*
X158317143Y-19398914D01*
X158317143Y-19398914D02*
X158221905Y-19446533D01*
%TO.C,R2*%
D12*
X185040000Y-55080000D02*
X188880000Y-55080000D01*
X185040000Y-56920000D02*
X188880000Y-56920000D01*
%TO.C,R1*%
X185040000Y-51930000D02*
X188880000Y-51930000D01*
X185040000Y-53770000D02*
X188880000Y-53770000D01*
%TO.C,D2*%
D13*
X172730000Y-57968894D02*
X172730000Y-61100894D01*
X172730000Y-57968894D02*
G75*
G02*
X172730000Y-61100894I2506124J-1566000D01*
G01*
D14*
X172130000Y-59534894D02*
G75*
G02*
X171930000Y-59534894I-100000J0D01*
G01*
X171930000Y-59534894D02*
G75*
G02*
X172130000Y-59534894I100000J0D01*
G01*
%TO.C,SW2*%
D12*
X150595000Y-41095000D02*
X164565000Y-41095000D01*
X150595000Y-55065000D02*
X150595000Y-41095000D01*
X164565000Y-41095000D02*
X164565000Y-55065000D01*
X164565000Y-55065000D02*
X150595000Y-55065000D01*
%TO.C,D1*%
D13*
X172730000Y-50503788D02*
X172730000Y-53635788D01*
X172730000Y-50503788D02*
G75*
G02*
X172730000Y-53635788I2506124J-1566000D01*
G01*
D14*
X172130000Y-52069788D02*
G75*
G02*
X171930000Y-52069788I-100000J0D01*
G01*
X171930000Y-52069788D02*
G75*
G02*
X172130000Y-52069788I100000J0D01*
G01*
%TO.C,U1*%
D13*
X174506000Y-29135000D02*
X174506000Y-43105000D01*
X176411000Y-27230000D02*
X193556000Y-27230000D01*
X176411000Y-45010000D02*
X193556000Y-45010000D01*
X195461000Y-31625000D02*
X196371272Y-31628728D01*
D15*
X195461000Y-43105000D02*
X195461000Y-29135000D01*
D13*
X195461000Y-43105000D02*
X195461000Y-29135000D01*
X196371000Y-40624000D02*
X195461000Y-40624000D01*
X196871000Y-32128728D02*
X196871000Y-40124000D01*
X174506000Y-29135000D02*
G75*
G02*
X176411000Y-27230000I1905001J-1D01*
G01*
X176411000Y-45010000D02*
G75*
G02*
X174506000Y-43105000I1J1905001D01*
G01*
X193556000Y-27230000D02*
G75*
G02*
X195461000Y-29135000I0J-1905000D01*
G01*
X195461000Y-43105000D02*
G75*
G02*
X193556000Y-45010000I-1905000J0D01*
G01*
X196371272Y-31628728D02*
G75*
G02*
X196870972Y-32128728I-272J-499972D01*
G01*
X196871000Y-40124000D02*
G75*
G02*
X196371000Y-40624000I-500000J0D01*
G01*
D16*
X194592000Y-28313000D02*
G75*
G02*
X194088000Y-28313000I-252000J0D01*
G01*
X194088000Y-28313000D02*
G75*
G02*
X194592000Y-28313000I252000J0D01*
G01*
X195472000Y-27170000D02*
G75*
G02*
X194968000Y-27170000I-252000J0D01*
G01*
X194968000Y-27170000D02*
G75*
G02*
X195472000Y-27170000I252000J0D01*
G01*
%TO.C,R3*%
D12*
X185040000Y-58230000D02*
X188880000Y-58230000D01*
X185040000Y-60070000D02*
X188880000Y-60070000D01*
%TO.C,D3*%
D13*
X172730000Y-65434000D02*
X172730000Y-68566000D01*
X172730000Y-65434000D02*
G75*
G02*
X172730000Y-68566000I2506124J-1566000D01*
G01*
D14*
X172130000Y-67000000D02*
G75*
G02*
X171930000Y-67000000I-100000J0D01*
G01*
X171930000Y-67000000D02*
G75*
G02*
X172130000Y-67000000I100000J0D01*
G01*
%TO.C,SW3*%
D12*
X150475000Y-61595000D02*
X164445000Y-61595000D01*
X150475000Y-75565000D02*
X150475000Y-61595000D01*
X164445000Y-61595000D02*
X164445000Y-75565000D01*
X164445000Y-75565000D02*
X150475000Y-75565000D01*
%TO.C,SW1*%
X150475000Y-20595000D02*
X164445000Y-20595000D01*
X150475000Y-34565000D02*
X150475000Y-20595000D01*
X164445000Y-20595000D02*
X164445000Y-34565000D01*
X164445000Y-34565000D02*
X150475000Y-34565000D01*
%TD*%
M02*
