%TF.GenerationSoftware,KiCad,Pcbnew,10.0.0*%
%TF.CreationDate,2026-05-24T23:24:21+05:30*%
%TF.ProjectId,titan c,74697461-6e20-4632-9e6b-696361645f70,rev?*%
%TF.SameCoordinates,Original*%
%TF.FileFunction,Soldermask,Top*%
%TF.FilePolarity,Negative*%
%FSLAX46Y46*%
G04 Gerber Fmt 4.6, Leading zero omitted, Abs format (unit mm)*
G04 Created by KiCad (PCBNEW 10.0.0) date 2026-05-24 23:24:21*
%MOMM*%
%LPD*%
G01*
G04 APERTURE LIST*
G04 Aperture macros list*
%AMRoundRect*
0 Rectangle with rounded corners*
0 $1 Rounding radius*
0 $2 $3 $4 $5 $6 $7 $8 $9 X,Y pos of 4 corners*
0 Add a 4 corners polygon primitive as box body*
4,1,4,$2,$3,$4,$5,$6,$7,$8,$9,$2,$3,0*
0 Add four circle primitives for the rounded corners*
1,1,$1+$1,$2,$3*
1,1,$1+$1,$4,$5*
1,1,$1+$1,$6,$7*
1,1,$1+$1,$8,$9*
0 Add four rect primitives between the rounded corners*
20,1,$1+$1,$2,$3,$4,$5,0*
20,1,$1+$1,$4,$5,$6,$7,0*
20,1,$1+$1,$6,$7,$8,$9,0*
20,1,$1+$1,$8,$9,$2,$3,0*%
G04 Aperture macros list end*
%ADD10C,1.400000*%
%ADD11C,2.019000*%
%ADD12RoundRect,0.102000X-0.907500X-0.907500X0.907500X-0.907500X0.907500X0.907500X-0.907500X0.907500X0*%
%ADD13C,1.700000*%
%ADD14C,4.000000*%
%ADD15C,2.200000*%
%ADD16RoundRect,0.152400X0.609600X-1.063600X0.609600X1.063600X-0.609600X1.063600X-0.609600X-1.063600X0*%
%ADD17C,1.524000*%
%ADD18RoundRect,0.152400X-0.609600X1.063600X-0.609600X-1.063600X0.609600X-1.063600X0.609600X1.063600X0*%
G04 APERTURE END LIST*
D10*
%TO.C,R2*%
X184420000Y-56000000D03*
X189500000Y-56000000D03*
%TD*%
%TO.C,R1*%
X184420000Y-52850000D03*
X189500000Y-52850000D03*
%TD*%
D11*
%TO.C,D2*%
X176500000Y-59534894D03*
D12*
X173960000Y-59534894D03*
%TD*%
D13*
%TO.C,SW2*%
X152500000Y-48080000D03*
D14*
X157580000Y-48080000D03*
D13*
X162660000Y-48080000D03*
D15*
X160120000Y-43000000D03*
X153770000Y-45540000D03*
%TD*%
D11*
%TO.C,D1*%
X176500000Y-52069788D03*
D12*
X173960000Y-52069788D03*
%TD*%
D16*
%TO.C,U1*%
X192540000Y-27665000D03*
D17*
X192540000Y-28500000D03*
D16*
X190000000Y-27665000D03*
D17*
X190000000Y-28500000D03*
D16*
X187460000Y-27665000D03*
D17*
X187460000Y-28500000D03*
D16*
X184920000Y-27665000D03*
D17*
X184920000Y-28500000D03*
D16*
X182380000Y-27665000D03*
D17*
X182380000Y-28500000D03*
D16*
X179840000Y-27665000D03*
D17*
X179840000Y-28500000D03*
D16*
X177300000Y-27665000D03*
D17*
X177300000Y-28500000D03*
X177300000Y-43740000D03*
D18*
X177300000Y-44575000D03*
D17*
X179840000Y-43740000D03*
D18*
X179840000Y-44575000D03*
D17*
X182380000Y-43740000D03*
D18*
X182380000Y-44575000D03*
D17*
X184920000Y-43740000D03*
D18*
X184920000Y-44575000D03*
D17*
X187460000Y-43740000D03*
D18*
X187460000Y-44575000D03*
D17*
X190000000Y-43740000D03*
D18*
X190000000Y-44575000D03*
D17*
X192540000Y-43740000D03*
D18*
X192540000Y-44575000D03*
%TD*%
D10*
%TO.C,R3*%
X184420000Y-59150000D03*
X189500000Y-59150000D03*
%TD*%
D11*
%TO.C,D3*%
X176500000Y-67000000D03*
D12*
X173960000Y-67000000D03*
%TD*%
D13*
%TO.C,SW3*%
X152380000Y-68580000D03*
D14*
X157460000Y-68580000D03*
D13*
X162540000Y-68580000D03*
D15*
X160000000Y-63500000D03*
X153650000Y-66040000D03*
%TD*%
D13*
%TO.C,SW1*%
X152380000Y-27580000D03*
D14*
X157460000Y-27580000D03*
D13*
X162540000Y-27580000D03*
D15*
X160000000Y-22500000D03*
X153650000Y-25040000D03*
%TD*%
M02*
